<svg width="16" height="16" viewBox="0 0 16 16" fill="none" xmlns="http://www.w3.org/2000/svg">
<g>
<g>
<path fill-rule="evenodd" clip-rule="evenodd" d="M4.73348 1.33388C4.83241 1.07426 4.98556 0.835727 5.18581 0.635479C5.55893 0.262354 6.065 0.0527344 6.59268 0.0527344H9.42905C9.95673 0.0527344 10.4628 0.262354 10.8359 0.635479C11.03 0.829524 11.1798 1.05953 11.2789 1.30982C11.9347 1.50507 12.5299 1.87172 13.001 2.37554C13.576 2.99062 13.9347 3.77652 14.0226 4.61393L14.2077 6.29757C15.1671 6.37068 15.8973 7.2531 15.7705 8.22054L14.9785 14.1877C14.976 14.2062 14.9735 14.2279 14.9706 14.2524C14.9533 14.4009 14.9244 14.6489 14.8312 14.8737C14.6304 15.3578 14.2077 15.7337 13.7067 15.8793C13.4685 15.9484 13.2263 15.9463 13.0779 15.945L13.0277 15.9447H3.04722C3.02712 15.9447 3.00363 15.9451 2.97726 15.9455C2.8154 15.9483 2.54553 15.9527 2.29235 15.8793C1.79127 15.7337 1.36866 15.3578 1.16786 14.8737C1.06099 14.6159 1.0292 14.3093 1.01005 14.1245C1.00597 14.0851 1.00246 14.0513 0.99892 14.0246L0.243709 8.33467C0.226172 8.20253 0.199844 8.00255 0.228592 7.78406C0.322504 7.07034 0.86803 6.47547 1.57948 6.32769C1.65607 6.31178 1.73443 6.3011 1.81411 6.29606L1.9994 4.61166L1.99955 4.61025C2.09262 3.77685 2.45398 2.99625 3.02918 2.38603C3.49692 1.88982 4.08548 1.52812 4.73348 1.33388ZM4.90727 3.09971C4.67212 3.2133 4.45805 3.36942 4.27662 3.5619C3.95645 3.90156 3.75526 4.33601 3.70332 4.79987L3.5391 6.29275H12.4826L12.3184 4.79913L12.3178 4.79427C12.2691 4.3274 12.0693 3.8892 11.7488 3.54632C11.5692 3.3543 11.3573 3.19808 11.1244 3.08372C11.043 3.21612 10.9463 3.33884 10.8359 3.44922C10.6512 3.63397 10.4318 3.78052 10.1904 3.88051C9.94905 3.9805 9.69033 4.03196 9.42905 4.03196H6.59268C6.065 4.03196 5.55893 3.82234 5.18581 3.44922C5.07929 3.34269 4.98607 3.22532 4.90727 3.09971ZM4.99519 9.70054C4.99519 9.30606 4.6754 8.98626 4.28091 8.98626C3.88643 8.98626 3.56662 9.30606 3.56662 9.70054V12.5369C3.56662 12.9314 3.88643 13.2511 4.28091 13.2511C4.6754 13.2511 4.99519 12.9314 4.99519 12.5369V9.70054ZM8.01085 8.98626C8.40534 8.98626 8.72514 9.30606 8.72514 9.70054V12.5369C8.72514 12.9314 8.40534 13.2511 8.01085 13.2511C7.61636 13.2511 7.29657 12.9314 7.29657 12.5369V9.70054C7.29657 9.30606 7.61636 8.98626 8.01085 8.98626ZM12.4551 9.70054C12.4551 9.30606 12.1353 8.98626 11.7408 8.98626C11.3463 8.98626 11.0265 9.30606 11.0265 9.70054V12.5369C11.0265 12.9314 11.3463 13.2511 11.7408 13.2511C12.1353 13.2511 12.4551 12.9314 12.4551 12.5369V9.70054Z" fill="black" />
</g>
</g>

</svg>
