<svg width="16" height="16.0007" viewBox="0 0 16 16.0007" fill="none" xmlns="http://www.w3.org/2000/svg">
<g>
<path d="M0.911458 16.0005H15.1087C15.3688 16.0005 15.629 15.8765 15.7883 15.6703C15.9679 15.4641 16.0281 15.1758 15.9882 14.9076L14.6088 6.92871C14.5292 6.47528 14.1488 6.16602 13.7293 6.16602H13.3497C13.0498 6.72253 12.4897 7.09382 11.8297 7.09382C11.1697 7.09382 10.6096 6.72253 10.3097 6.16602H9.63011C9.69025 6.39314 9.73009 6.57837 9.73009 6.74348C9.73009 7.11476 9.65041 7.44415 9.49029 7.75342H10.23C10.3503 7.75342 10.4503 7.85651 10.4698 7.98055L10.8494 14.1449C10.8494 14.2069 10.8291 14.2689 10.7892 14.3301C10.7494 14.3712 10.6893 14.4122 10.6096 14.4122H8.93024C8.80995 14.4122 8.70996 14.3092 8.69044 14.1851L8.57015 8.78346C8.23038 8.98964 7.84997 9.11368 7.43053 9.11368H7.3907L7.27041 14.1861C7.27041 14.3101 7.17043 14.4132 7.03061 14.4132H5.35125C5.29111 14.4132 5.23097 14.3922 5.1716 14.331C5.13176 14.29 5.11146 14.2279 5.11146 14.1458L5.49106 8.02252C5.25127 7.65124 5.11146 7.21876 5.11146 6.74439C5.11146 6.57928 5.15129 6.39405 5.21144 6.16692L2.291 6.16612C1.85124 6.16612 1.47083 6.49633 1.39117 6.92881L0.0117542 14.9287C-0.0280821 15.1969 0.0320623 15.4852 0.211716 15.6914C0.391369 15.8767 0.651472 16.0007 0.911582 16.0007L0.911458 16.0005ZM11.6492 7.83544C11.689 7.77342 11.7492 7.75329 11.8289 7.75329H13.2489C13.3692 7.75329 13.4692 7.83544 13.4887 7.95947L14.4088 14.1238C14.4088 14.1858 14.4088 14.2679 14.3487 14.309C14.3089 14.371 14.2284 14.3912 14.169 14.3912H12.4897C12.3694 14.3912 12.2694 14.309 12.2499 14.185L11.5703 8.02068C11.5891 7.93853 11.6094 7.87651 11.6492 7.83544ZM1.61132 14.1239L2.53147 7.95956C2.55178 7.83553 2.65176 7.75338 2.75174 7.75338H4.19131C4.25145 7.75338 4.3116 7.77432 4.37096 7.83553C4.4108 7.8766 4.43111 7.95956 4.43111 8.02077L3.75078 14.1859C3.73047 14.3099 3.63049 14.3921 3.51098 14.3921H1.83163C1.77148 14.3921 1.71134 14.351 1.65197 14.3099C1.61136 14.2479 1.61132 14.1859 1.61132 14.1239Z" fill="black" />
<path d="M10.6496 5.81453C10.8496 6.2889 11.3096 6.59817 11.829 6.59817C12.5492 6.59817 13.1288 6.00058 13.1288 5.25801C13.1288 4.7015 12.329 3.25825 11.829 2.47461C11.3495 3.25825 10.5293 4.70154 10.5293 5.25801C10.5301 5.46419 10.5894 5.65022 10.6496 5.81453Z" fill="black" />
<path d="M9.08947 5.97916C8.7497 5.01029 7.92953 3.62914 7.44995 2.82443C6.81023 3.85532 5.62998 5.9171 5.62998 6.72078C5.62998 7.75167 6.45014 8.59733 7.44995 8.59733C8.44976 8.59733 9.26992 7.75167 9.26992 6.72078C9.26992 6.53554 9.20977 6.28748 9.10979 5.99916C9.10979 6.0201 9.10978 6.0001 9.08947 5.97916Z" fill="black" />
<path d="M3.25084 2.2059C3.25084 2.78336 3.71091 3.25773 4.27097 3.25773C4.83102 3.25773 5.29109 2.78336 5.29109 2.2059C5.29109 1.79354 4.73104 0.741704 4.27097 0C3.81089 0.74257 3.25084 1.79358 3.25084 2.2059Z" fill="black" />
</g>

</svg>
